<svg version="1.2" xmlns="http://www.w3.org/2000/svg" viewBox="0 0 800 800" width="800" height="800">
	<style>
		.s0 { fill: #ffffff } 
	</style>
	<path class="s0" d="m314.2 614.73c-50.52-39.83-105.76-78.72-149.59-128.07-42.97-48.39-72.94-104.84-72.94-178.09h-50c0 88.85 37.01 156.63 85.55 211.29 47.69 53.69 108.47 96.65 156.03 134.14zm-222.54-306.16c0-71.7 40.51-131.82 95.81-157.1 53.73-24.56 125.91-18.05 194.51 53.22l36.03-34.68c-81.4-84.56-175.88-98.5-251.32-64.01-73.87 33.76-125.03 112.16-125.03 202.57zm425.09 345.42c47.55-37.49 108.34-80.44 156.02-134.13 48.54-54.66 85.56-122.44 85.56-211.29h-50c0 73.24-29.97 129.7-72.94 178.09-43.83 49.35-99.07 88.24-149.59 128.07zm241.58-345.43c0-90.4-51.16-168.81-125.03-202.57-75.44-34.49-169.92-20.55-251.32 64.02l36.03 34.67c68.59-71.27 140.78-77.77 194.5-53.22 55.3 25.28 95.82 85.4 95.82 157.1zm-475.09 345.43c17.07 13.46 35.4 27.81 53.98 38.66 18.57 10.85 39.76 19.67 62.77 19.67v-50c-10.32 0-22.46-4.02-37.54-12.84-15.08-8.81-30.72-20.94-48.26-34.76zm116.76-466.64l-18.02 17.33q0.17 0.18 0.34 0.35zm-101.27 447.01l15.48-19.64zm187.07-19.63c-17.54 13.82-33.18 25.95-48.25 34.76-15.09 8.82-27.23 12.84-37.55 12.84v50c23.01 0 44.2-8.82 62.77-19.67 18.58-10.85 36.91-25.2 53.98-38.66zm-36.8-343.05c9.76 9.76 25.59 9.75 35.35-0.01 9.76-9.77 9.76-25.6-0.01-35.36zm52.29 362.69l15.47 19.63zm-118.95-429.33l66.67 66.65 35.35-35.37-66.67-66.64z"/>
</svg>