<svg version="1.2" xmlns="http://www.w3.org/2000/svg" viewBox="0 0 800 800" width="800" height="800">
	<style>
		.s0 { fill: #ffffff } 
	</style>
	<path fill-rule="evenodd" class="s0" d="m399.99 712.32c-23.01 0-44.2-8.82-62.77-19.67-18.58-10.85-36.9-25.19-53.97-38.65-47.56-37.49-108.34-80.45-156.03-134.14-48.54-54.66-85.55-122.44-85.55-211.29h-0.01c0-90.41 51.16-168.81 125.03-202.57 69.94-31.97 156.23-22.33 233.3 46.62 77.08-68.96 163.37-78.6 233.31-46.63 73.87 33.76 125.03 112.17 125.03 202.57h-32.41q0 0 0 0.01h32.41c0 88.85-37.02 156.63-85.56 211.29-47.68 53.69-108.47 96.64-156.02 134.13l-4.55-5.77q0 0-0.01 0l4.56 5.78c-17.07 13.46-35.4 27.81-53.98 38.66-18.57 10.85-39.76 19.67-62.77 19.67v-43.94q0 0-0.01 0zm212.52-560.86c-9.25-4.22-19.04-7.53-29.27-9.74 16.86 4.96 33.02 11.85 48.17 20.77q4.71 2.77 9.19 5.74c-8.79-6.62-18.21-12.25-28.09-16.77zm-425.04 0.01q-3.61 1.65-7.12 3.49 11.4-5.57 23.39-9.77-8.38 2.67-16.27 6.28z"/>
</svg>